<?xml version="1.0" encoding="UTF-8"?>
<svg width="800" height="600" viewBox="0 0 800 600" fill="none" xmlns="http://www.w3.org/2000/svg">
    <!-- Background Elements -->
    <circle cx="400" cy="300" r="250" fill="url(#gradient1)" fill-opacity="0.1"/>
    <circle cx="400" cy="300" r="200" fill="url(#gradient2)" fill-opacity="0.15"/>
    
    <!-- Main Device Frame -->
    <rect x="250" y="100" width="300" height="400" rx="20" fill="#1E293B" filter="url(#shadow)"/>
    <rect x="260" y="110" width="280" height="380" rx="15" fill="#0F172A"/>
    
    <!-- Screen Content -->
    <!-- Header -->
    <rect x="280" y="130" width="240" height="40" rx="8" fill="#334155"/>
    <circle cx="300" cy="150" r="10" fill="#60A5FA"/>
    <rect x="320" y="145" width="100" height="10" rx="2" fill="#94A3B8"/>
    
    <!-- Question Area -->
    <rect x="280" y="190" width="240" height="100" rx="8" fill="#1E293B"/>
    <rect x="300" y="210" width="200" height="10" rx="2" fill="#94A3B8"/>
    <rect x="300" y="230" width="180" height="10" rx="2" fill="#94A3B8"/>
    <rect x="300" y="250" width="160" height="10" rx="2" fill="#94A3B8"/>
    
    <!-- Answer Options -->
    <rect x="280" y="310" width="240" height="40" rx="8" fill="#334155"/>
    <rect x="300" y="325" width="180" height="10" rx="2" fill="#94A3B8"/>
    
    <rect x="280" y="360" width="240" height="40" rx="8" fill="#334155"/>
    <rect x="300" y="375" width="180" height="10" rx="2" fill="#94A3B8"/>
    
    <rect x="280" y="410" width="240" height="40" rx="8" fill="#334155"/>
    <rect x="300" y="425" width="180" height="10" rx="2" fill="#94A3B8"/>
    
    <!-- Floating Elements -->
    <circle cx="180" cy="200" r="30" fill="url(#gradient3)" fill-opacity="0.2"/>
    <circle cx="620" cy="400" r="40" fill="url(#gradient4)" fill-opacity="0.2"/>
    <circle cx="200" cy="500" r="25" fill="url(#gradient5)" fill-opacity="0.2"/>
    <circle cx="600" cy="150" r="35" fill="url(#gradient6)" fill-opacity="0.2"/>
    
    <!-- Definitions -->
    <defs>
        <linearGradient id="gradient1" x1="0" y1="0" x2="800" y2="600" gradientUnits="userSpaceOnUse">
            <stop offset="0%" stop-color="#3B82F6"/>
            <stop offset="100%" stop-color="#2563EB"/>
        </linearGradient>
        
        <linearGradient id="gradient2" x1="0" y1="0" x2="800" y2="600" gradientUnits="userSpaceOnUse">
            <stop offset="0%" stop-color="#60A5FA"/>
            <stop offset="100%" stop-color="#3B82F6"/>
        </linearGradient>
        
        <linearGradient id="gradient3" x1="0" y1="0" x2="100" y2="100" gradientUnits="userSpaceOnUse">
            <stop offset="0%" stop-color="#60A5FA"/>
            <stop offset="100%" stop-color="#3B82F6"/>
        </linearGradient>
        
        <linearGradient id="gradient4" x1="0" y1="0" x2="100" y2="100" gradientUnits="userSpaceOnUse">
            <stop offset="0%" stop-color="#3B82F6"/>
            <stop offset="100%" stop-color="#2563EB"/>
        </linearGradient>
        
        <linearGradient id="gradient5" x1="0" y1="0" x2="100" y2="100" gradientUnits="userSpaceOnUse">
            <stop offset="0%" stop-color="#60A5FA"/>
            <stop offset="100%" stop-color="#3B82F6"/>
        </linearGradient>
        
        <linearGradient id="gradient6" x1="0" y1="0" x2="100" y2="100" gradientUnits="userSpaceOnUse">
            <stop offset="0%" stop-color="#3B82F6"/>
            <stop offset="100%" stop-color="#2563EB"/>
        </linearGradient>
        
        <filter id="shadow" x="-50%" y="-50%" width="200%" height="200%">
            <feGaussianBlur in="SourceAlpha" stdDeviation="10"/>
            <feOffset dx="0" dy="10" result="offsetblur"/>
            <feFlood flood-color="#000000" flood-opacity="0.3"/>
            <feComposite in2="offsetblur" operator="in"/>
            <feMerge>
                <feMergeNode/>
                <feMergeNode in="SourceGraphic"/>
            </feMerge>
        </filter>
    </defs>
</svg> 